<?xml version="1.0" encoding="UTF-8"?>
<svg xmlns="http://www.w3.org/2000/svg" onmouseup="{ if(window.parent.document.onmouseup) window.parent.document.onmouseup(arguments[0]);}" xml:space="preserve" style="enable-background:new 0 0 66 66;" viewBox="0 0 66 66" y="0px" x="0px" id="Layer_1" version="1.1" xmlns:xlink="http://www.w3.org/1999/xlink"><style type="text/css">
	.st0{fill:#EFEFEF;}
	.st1{fill:#DDDEE0;}
	.st2{fill:#FFD550;}
	.st3{fill:#F95353;}
	.st4{fill:#178BFF;}
	.st5{fill:#48495B;}
	.st6{fill:#FFFFFF;}
	.st7{opacity:0.15;}
	.st8{fill:#3B3E3F;}
	.st9{fill:#00CC6F;}
	.st10{fill:#F41919;}
	.st11{fill:#09B25E;}
	.st12{fill:#0C83E5;}
	.st13{fill:#FFAF57;}
	.st14{opacity:0.3;}
	.st15{fill:#0B1114;}
	.st16{opacity:0.1;}
	.st17{fill:none;}
	.st18{opacity:8.000000e-02;}
	.st19{fill:#FDD64A;}
	.st20{fill:#CECECE;}
	.st21{fill:#0D0D0D;}
	.st22{opacity:5.000000e-02;}
	.st23{fill:#C4CCC7;}
	.st24{opacity:0.2;}
	.st25{fill:#AB5E1F;}
	.st26{fill:#3B434F;}
	.st27{fill:#D67527;}
</style><g id="_x35_"><g><g><path data-cppathid="10000" d="M60.2,49.8c-1.9,4.6-1.9,9.2,0,13.9c0.3,0.6-0.2,1.3-0.9,1.3L10,65c-4.6,0-8.2-3.7-8.2-8.2v0     c0-4.6,3.7-8.2,8.2-8.2l49.2,0C59.9,48.5,60.4,49.2,60.2,49.8z" class="st3"/></g><g><path data-cppathid="10001" d="M59,59.8H10c-1.7,0-3-1.4-3-3c0-1.7,1.4-3,3-3H59C58.6,55.7,58.6,57.8,59,59.8z" class="st6"/></g><g><path data-cppathid="10002" d="M52.5,25.2c0,1.6-0.2,3.2-0.5,4.7c-0.1,0.7-0.3,1.4-0.5,2.1H5.1c-0.2-0.7-0.4-1.4-0.5-2.1     c-0.3-1.5-0.5-3.1-0.5-4.7C4.1,11.8,14.9,1,28.3,1C41.7,1,52.5,11.8,52.5,25.2z" class="st4"/></g><g><path data-cppathid="10003" d="M1.9,33.3c1.9,4.6,1.9,9.2,0,13.9c-0.3,0.6,0.2,1.3,0.9,1.3l49.2,0c4.6,0,8.2-3.7,8.2-8.2v0     c0-4.6-3.7-8.2-8.2-8.2L2.8,32C2.1,32,1.6,32.7,1.9,33.3z" class="st9"/></g><g><path data-cppathid="10004" d="M3,43.3H52c1.7,0,3-1.4,3-3c0-1.7-1.4-3-3-3H3C3.4,39.3,3.4,41.3,3,43.3z" class="st6"/></g><g><path data-cppathid="10005" d="M46.1,25.2c0,1.6-0.2,3.2-0.7,4.7c-0.2,0.7-0.4,1.4-0.7,2.1H11.8c-0.3-0.7-0.5-1.4-0.7-2.1     c-0.4-1.5-0.7-3.1-0.7-4.7c0-9.8,8-17.8,17.8-17.8C38.1,7.4,46.1,15.4,46.1,25.2z" class="st0"/></g><g><path data-cppathid="10006" d="M37.6,25.2c0,1.7-0.5,3.4-1.3,4.7c-0.5,0.8-1,1.5-1.7,2.1H22c-0.7-0.6-1.2-1.3-1.7-2.1     c-0.8-1.4-1.3-3-1.3-4.7c0-5.1,4.2-9.3,9.3-9.3C33.4,15.9,37.6,20.1,37.6,25.2z" class="st4"/></g><g><path data-cppathid="10007" d="M64.2,16.5l-6,2.3l-2.4-1.4l-27.1,9.3c-0.1,0-0.2,0.1-0.3,0.1c-0.4,0-0.8-0.3-1-0.7     c-0.2-0.5,0.1-1.1,0.7-1.3l27-9.2l0.9-2.7l6-2.3l-0.7,3.7L64.2,16.5z" class="st5"/></g></g><g class="st7"><path data-cppathid="10008" d="M52.1,30c-0.1,0.7-0.3,1.4-0.5,2.1H5.1c-0.2-0.7-0.4-1.4-0.5-2.1H52.1z" class="st5"/></g></g></svg>